<svg width="40" height="30" viewBox="0 0 40 30" fill="none" xmlns="http://www.w3.org/2000/svg">
<path d="M16.6629 25.4734C17.0611 25.8993 17.2783 26.4631 17.2689 27.046C17.2596 27.6289 17.0243 28.1855 16.6127 28.5983C16.2011 29.0112 15.6453 29.2482 15.0625 29.2594C14.4796 29.2706 13.9151 29.0552 13.4879 28.6584L1.46911 16.6773C1.0471 16.256 0.80953 15.6845 0.808594 15.0883C0.807657 14.492 1.04343 13.9198 1.46411 13.4973L13.4453 1.47842C13.6509 1.25704 13.899 1.07934 14.1748 0.955932C14.4506 0.832523 14.7485 0.765931 15.0506 0.760125C15.3527 0.754321 15.6528 0.809421 15.9332 0.922145C16.2135 1.03487 16.4683 1.2029 16.6823 1.41622C16.8963 1.62954 17.0651 1.88378 17.1787 2.16377C17.2923 2.44375 17.3483 2.74375 17.3435 3.04587C17.3386 3.34798 17.273 3.64603 17.1504 3.92222C17.0279 4.19841 16.851 4.44709 16.6302 4.65342L8.48307 12.8262L37.553 12.7806C38.1498 12.7796 38.7224 13.0158 39.1451 13.4371C39.5677 13.8584 39.8056 14.4303 39.8066 15.027C39.8075 15.6238 39.5713 16.1964 39.1501 16.6191C38.7288 17.0417 38.1568 17.2796 37.5601 17.2806L8.49014 17.3262L16.6629 25.4734Z" fill="#9747FF"/>
</svg>
