<svg width="40" height="30" viewBox="0 0 40 30" fill="none" xmlns="http://www.w3.org/2000/svg">
<path d="M23.41 4.59003C23.0126 4.1635 22.7962 3.59936 22.8065 3.01646C22.8168 2.43356 23.0529 1.8774 23.4651 1.46516C23.8774 1.05292 24.4335 0.816788 25.0164 0.806503C25.5993 0.796218 26.1635 1.01259 26.59 1.41003L38.59 13.41C39.0113 13.8319 39.248 14.4038 39.248 15C39.248 15.5963 39.0113 16.1682 38.59 16.59L26.59 28.59C26.384 28.8111 26.1356 28.9884 25.8596 29.1114C25.5836 29.2343 25.2857 29.3005 24.9836 29.3058C24.6815 29.3111 24.3814 29.2556 24.1012 29.1424C23.821 29.0292 23.5665 28.8608 23.3529 28.6471C23.1392 28.4335 22.9708 28.179 22.8576 27.8988C22.7445 27.6187 22.6889 27.3186 22.6942 27.0165C22.6996 26.7144 22.7657 26.4164 22.8887 26.1404C23.0116 25.8644 23.1889 25.616 23.41 25.41L31.57 17.25H2.5C1.90326 17.25 1.33097 17.013 0.909009 16.591C0.487053 16.1691 0.25 15.5968 0.25 15C0.25 14.4033 0.487053 13.831 0.909009 13.409C1.33097 12.9871 1.90326 12.75 2.5 12.75H31.57L23.41 4.59003Z" fill="#9747FF"/>
</svg>
